<svg xmlns="http://www.w3.org/2000/svg" xmlns:xlink="http://www.w3.org/1999/xlink" viewBox="0 0 125.74 115.83"><defs><style>.cls-1{isolation:isolate;}.cls-2{fill:url(#Degradado_sin_nombre_4);}.cls-3{fill:url(#Degradado_sin_nombre_4-2);}.cls-4{mix-blend-mode:multiply;fill:url(#linear-gradient);}</style><linearGradient id="Degradado_sin_nombre_4" x1="25.81" y1="11.01" x2="125.95" y2="111.15" gradientUnits="userSpaceOnUse"><stop offset="0" stop-color="#fff"/><stop offset="1" stop-color="#fff"/></linearGradient><linearGradient id="Degradado_sin_nombre_4-2" x1="-2.93" y1="39.75" x2="97.21" y2="139.89" xlink:href="#Degradado_sin_nombre_4"/><linearGradient id="linear-gradient" x1="65.41" y1="73.02" x2="76.29" y2="91.78" gradientUnits="userSpaceOnUse"><stop offset="0" stop-color="#272525"/><stop offset="1" stop-color="#fff"/></linearGradient></defs><title>Recurso 3</title><g class="cls-1"><g id="Capa_2" data-name="Capa 2"><g id="Object"><path class="cls-2" d="M120.26,105.45H90.39l-43.58-73L57.44,14.68,86.61,63.5a5,5,0,0,0,4.28,2.43,5,5,0,0,0,4.27-7.53l-33.45-56a5,5,0,0,0-8.6.11l0,.07L36.74,29.91a3.21,3.21,0,0,0-.24.45c0,.06,0,.13-.08.2a2.44,2.44,0,0,0-.1.24c0,.11-.07.23-.1.34s0,.08,0,.12,0,.23-.07.34a.59.59,0,0,1,0,.13,3,3,0,0,0,0,.31,1.1,1.1,0,0,0,0,.18v.49a1.1,1.1,0,0,0,0,.18c0,.1,0,.2,0,.31a.5.5,0,0,1,0,.12c0,.12,0,.23.07.35l0,.11.11.35a1.67,1.67,0,0,1,.08.2,2.44,2.44,0,0,1,.1.24,3.75,3.75,0,0,0,.24.44h0L83.3,113l0,.07a3.51,3.51,0,0,0,.27.4.44.44,0,0,1,.08.11q.18.21.39.42l.13.12a3.88,3.88,0,0,0,.31.26l.16.12.39.25.09,0a3.22,3.22,0,0,0,.53.25l.1,0a4,4,0,0,0,.45.15l.15,0,.43.08.16,0a3.27,3.27,0,0,0,.54,0h32.73a5,5,0,0,0,0-10Z"/><path class="cls-3" d="M125.52,108.81a66,66,0,0,0-23.33-33.13,65.47,65.47,0,0,0-78.7.15A66,66,0,0,0,.21,109.3a5,5,0,0,0,3.34,6.19,4.73,4.73,0,0,0,2.08.16l38.07.18h.09a4.38,4.38,0,0,0,.52,0l.19,0,.43-.09.16,0a5.41,5.41,0,0,0,1.13-.48l.06,0,.09-.07.23-.15.2-.14.17-.15.2-.18.14-.14a2.09,2.09,0,0,0,.2-.22l.12-.14.17-.23.11-.17c.05-.08.1-.15.14-.23a2.12,2.12,0,0,0,.11-.21,1.86,1.86,0,0,0,.1-.2,2.6,2.6,0,0,0,.1-.25c0-.07,0-.13.07-.19l.09-.27a1.46,1.46,0,0,1,0-.2c0-.09,0-.17,0-.26s0-.15,0-.23,0-.16,0-.23,0-.19,0-.28v-.21c0-.1,0-.2,0-.3s0-.13,0-.2,0-.18,0-.27,0-.15-.05-.22a2.1,2.1,0,0,0-.06-.24,1.82,1.82,0,0,0-.07-.25c0-.07-.05-.13-.07-.2l-.11-.27-.09-.18c0-.09-.09-.17-.14-.26l0-.09-10.74-18a5,5,0,1,0-8.54,5.11l6.21,10.39-22.82-.11A55.94,55.94,0,0,1,62.94,72.56,55.22,55.22,0,0,1,116,111.73a5,5,0,0,0,9.51-2.92Z"/><path class="cls-4" d="M71.11,73.16a56.52,56.52,0,0,0-8.17-.6c-1.24,0-2.47,0-3.7.13L72,94H83.54Z"/></g></g></g></svg>